<svg width="10" height="12" viewBox="0 0 10 12" fill="none" xmlns="http://www.w3.org/2000/svg">
<path d="M8.92949 0.445312H2.1086C2.05261 0.445312 2.0068 0.491124 2.0068 0.547117V1.25975C2.0068 1.31574 2.05261 1.36155 2.1086 1.36155H8.42047V10.1167C8.42047 10.1727 8.46628 10.2185 8.52228 10.2185H9.23491C9.2909 10.2185 9.33671 10.1727 9.33671 10.1167V0.85253C9.33671 0.627288 9.15474 0.445312 8.92949 0.445312ZM7.30063 2.07418H0.785147C0.559905 2.07418 0.37793 2.25616 0.37793 2.4814V9.23485C0.37793 9.34301 0.421196 9.44609 0.49755 9.52244L2.70289 11.7278C2.73088 11.7558 2.7627 11.7787 2.79706 11.7978V11.8219H2.8505C2.89504 11.8385 2.94213 11.8474 2.99048 11.8474H7.30063C7.52587 11.8474 7.70784 11.6654 7.70784 11.4402V2.4814C7.70784 2.25616 7.52587 2.07418 7.30063 2.07418ZM2.79578 10.5265L1.70011 9.42955H2.79578V10.5265ZM6.7916 10.9312H3.61022V9.12413C3.61022 8.8429 3.38243 8.61511 3.1012 8.61511H1.29417V2.99042H6.7916V10.9312Z" fill="#838078"/>
</svg>
