<svg width="14" height="15" viewBox="0 0 14 15" fill="none" xmlns="http://www.w3.org/2000/svg">
<path fill-rule="evenodd" clip-rule="evenodd" d="M6.9995 0.746094C6.08025 0.746159 5.17001 0.927285 4.32075 1.27913C3.4715 1.63097 2.69986 2.14664 2.0499 2.7967C0.737238 4.10955 -0.000132581 5.89008 1.78805e-08 7.74659C0.000132617 9.60311 0.737758 11.3835 2.05061 12.6962C3.36345 14.0089 5.14398 14.7462 7.0005 14.7461C8.85701 14.746 10.6374 14.0083 11.9501 12.6955C13.2628 11.3826 14.0001 9.60211 14 7.74559C13.9999 5.88908 13.2622 4.10865 11.9494 2.79599C10.6365 1.48333 8.85602 0.745961 6.9995 0.746094V0.746094ZM8.73238 10.8864C8.01043 11.5663 7.49546 11.9903 7.15849 12.1823C6.81051 12.3823 6.52853 12.4783 6.29655 12.4783C6.19908 12.4824 6.10183 12.4658 6.0113 12.4294C5.92078 12.393 5.83905 12.3377 5.77159 12.2673C5.6426 12.1293 5.5776 11.9403 5.5776 11.7053C5.5776 11.0414 5.95957 9.48047 6.74452 6.93565C6.77601 6.83741 6.79186 6.73484 6.79151 6.63167H6.78451C6.68252 6.64011 6.58472 6.67605 6.50154 6.73567C6.36654 6.81966 5.44461 7.19763 5.26162 7.27263C5.23409 7.28467 5.20324 7.2868 5.17432 7.27866C5.14539 7.27051 5.12018 7.2526 5.10298 7.22797C5.08577 7.20334 5.07763 7.1735 5.07993 7.14354C5.08224 7.11358 5.09486 7.08535 5.11563 7.06364C5.6386 6.48868 6.12356 6.07171 6.55953 5.82573C7.0095 5.57275 7.38547 5.44976 7.71045 5.44976C7.90544 5.44976 8.06042 5.49575 8.17242 5.58775C8.23033 5.63563 8.27655 5.6961 8.30757 5.76454C8.33858 5.83299 8.35358 5.90761 8.3514 5.98272C8.3514 6.08671 8.29841 6.40269 7.84344 7.92458C7.30348 9.73745 7.0305 10.8394 7.0305 11.2023C7.0305 11.2463 7.0405 11.2803 7.0595 11.3063C7.06649 11.3163 7.07249 11.3223 7.07649 11.3263C7.21848 11.2983 7.94643 10.9764 8.58639 10.6744C8.61441 10.6604 8.64653 10.6571 8.67684 10.6649C8.70715 10.6727 8.73361 10.6912 8.75137 10.717C8.76912 10.7428 8.77698 10.7741 8.77349 10.8052C8.77 10.8364 8.7554 10.8652 8.73238 10.8864ZM8.64738 4.52982C8.46439 4.72981 8.25341 4.8318 8.02043 4.8318C7.93033 4.83381 7.84082 4.81677 7.75776 4.78179C7.67471 4.74681 7.59998 4.69468 7.53846 4.62882C7.40937 4.48874 7.34105 4.3032 7.34847 4.11285C7.34847 3.84787 7.43547 3.61889 7.60646 3.4329C7.68462 3.34254 7.78136 3.27013 7.89008 3.2206C7.99881 3.17107 8.11694 3.1456 8.23641 3.14592C8.4324 3.14592 8.59639 3.21292 8.72538 3.34391C8.85237 3.4739 8.91736 3.64189 8.91736 3.84187C8.91736 4.10185 8.82637 4.33184 8.64738 4.52982Z" fill="#646470"/>
</svg>
